{
	"asset":{
		"copyright":"CultureConnection",
		"generator":"Khronos glTF Blender I/O v3.6.27",
		"version":"2.0"
	},
	"scene":0,
	"scenes":[
		{
			"name":"Scene",
			"nodes":[
				4
			]
		}
	],
	"nodes":[
		{
			"name":"Wing_R",
			"rotation":[
				-0.26037123799324036,
				0.4299626350402832,
				0.42996570467948914,
				0.7499789595603943
			],
			"translation":[
				-0.1454969197511673,
				0.31226682662963867,
				0.008631373755633831
			]
		},
		{
			"name":"Wing_L",
			"rotation":[
				-0.2603713870048523,
				-0.4299626350402832,
				-0.42996570467948914,
				0.7499788999557495
			],
			"translation":[
				0.1454969197511673,
				0.3122667074203491,
				0.008631332777440548
			]
		},
		{
			"children":[
				0,
				1
			],
			"name":"Wings",
			"rotation":[
				-0.04197370633482933,
				-1.189668026313484e-07,
				-2.3028363660415607e-09,
				0.9991186857223511
			],
			"translation":[
				-1.4304067263992692e-08,
				0.38095685839653015,
				0.08223772048950195
			]
		},
		{
			"children":[
				2
			],
			"name":"Body",
			"rotation":[
				0.04197336360812187,
				8.689114849858015e-08,
				3.650324043036335e-09,
				0.9991186857223511
			],
			"translation":[
				0,
				0.04302068427205086,
				-0.12708312273025513
			]
		},
		{
			"children":[
				3
			],
			"name":"FoM_Bee_Blue-002",
			"rotation":[
				-0.08715574443340302,
				0,
				0,
				0.9961947798728943
			]
		}
	],
	"animations":[
		{
			"channels":[
				{
					"sampler":0,
					"target":{
						"node":3,
						"path":"translation"
					}
				},
				{
					"sampler":1,
					"target":{
						"node":3,
						"path":"rotation"
					}
				},
				{
					"sampler":2,
					"target":{
						"node":3,
						"path":"scale"
					}
				},
				{
					"sampler":3,
					"target":{
						"node":2,
						"path":"translation"
					}
				},
				{
					"sampler":4,
					"target":{
						"node":2,
						"path":"rotation"
					}
				},
				{
					"sampler":5,
					"target":{
						"node":2,
						"path":"scale"
					}
				},
				{
					"sampler":6,
					"target":{
						"node":0,
						"path":"translation"
					}
				},
				{
					"sampler":7,
					"target":{
						"node":0,
						"path":"rotation"
					}
				},
				{
					"sampler":8,
					"target":{
						"node":0,
						"path":"scale"
					}
				},
				{
					"sampler":9,
					"target":{
						"node":1,
						"path":"translation"
					}
				},
				{
					"sampler":10,
					"target":{
						"node":1,
						"path":"rotation"
					}
				},
				{
					"sampler":11,
					"target":{
						"node":1,
						"path":"scale"
					}
				},
				{
					"sampler":12,
					"target":{
						"node":4,
						"path":"translation"
					}
				},
				{
					"sampler":13,
					"target":{
						"node":4,
						"path":"rotation"
					}
				}
			],
			"name":"Bee.004Action",
			"samplers":[
				{
					"input":0,
					"interpolation":"STEP",
					"output":1
				},
				{
					"input":0,
					"interpolation":"STEP",
					"output":2
				},
				{
					"input":0,
					"interpolation":"STEP",
					"output":3
				},
				{
					"input":0,
					"interpolation":"STEP",
					"output":4
				},
				{
					"input":0,
					"interpolation":"STEP",
					"output":5
				},
				{
					"input":0,
					"interpolation":"STEP",
					"output":6
				},
				{
					"input":0,
					"interpolation":"STEP",
					"output":7
				},
				{
					"input":8,
					"interpolation":"LINEAR",
					"output":9
				},
				{
					"input":0,
					"interpolation":"STEP",
					"output":10
				},
				{
					"input":0,
					"interpolation":"STEP",
					"output":11
				},
				{
					"input":8,
					"interpolation":"LINEAR",
					"output":12
				},
				{
					"input":0,
					"interpolation":"STEP",
					"output":13
				},
				{
					"input":8,
					"interpolation":"LINEAR",
					"output":14
				},
				{
					"input":8,
					"interpolation":"LINEAR",
					"output":15
				}
			]
		},
		{
			"channels":[
				{
					"sampler":0,
					"target":{
						"node":3,
						"path":"translation"
					}
				},
				{
					"sampler":1,
					"target":{
						"node":3,
						"path":"rotation"
					}
				},
				{
					"sampler":2,
					"target":{
						"node":3,
						"path":"scale"
					}
				},
				{
					"sampler":3,
					"target":{
						"node":2,
						"path":"translation"
					}
				},
				{
					"sampler":4,
					"target":{
						"node":2,
						"path":"rotation"
					}
				},
				{
					"sampler":5,
					"target":{
						"node":2,
						"path":"scale"
					}
				},
				{
					"sampler":6,
					"target":{
						"node":0,
						"path":"translation"
					}
				},
				{
					"sampler":7,
					"target":{
						"node":0,
						"path":"rotation"
					}
				},
				{
					"sampler":8,
					"target":{
						"node":0,
						"path":"scale"
					}
				},
				{
					"sampler":9,
					"target":{
						"node":1,
						"path":"translation"
					}
				},
				{
					"sampler":10,
					"target":{
						"node":1,
						"path":"rotation"
					}
				},
				{
					"sampler":11,
					"target":{
						"node":1,
						"path":"scale"
					}
				},
				{
					"sampler":12,
					"target":{
						"node":4,
						"path":"translation"
					}
				},
				{
					"sampler":13,
					"target":{
						"node":4,
						"path":"rotation"
					}
				}
			],
			"name":"Bee.004Action_FoM_Bee_Green-001",
			"samplers":[
				{
					"input":16,
					"interpolation":"STEP",
					"output":17
				},
				{
					"input":16,
					"interpolation":"STEP",
					"output":18
				},
				{
					"input":16,
					"interpolation":"STEP",
					"output":19
				},
				{
					"input":16,
					"interpolation":"STEP",
					"output":20
				},
				{
					"input":16,
					"interpolation":"STEP",
					"output":21
				},
				{
					"input":16,
					"interpolation":"STEP",
					"output":22
				},
				{
					"input":16,
					"interpolation":"STEP",
					"output":23
				},
				{
					"input":24,
					"interpolation":"LINEAR",
					"output":25
				},
				{
					"input":16,
					"interpolation":"STEP",
					"output":26
				},
				{
					"input":16,
					"interpolation":"STEP",
					"output":27
				},
				{
					"input":24,
					"interpolation":"LINEAR",
					"output":28
				},
				{
					"input":16,
					"interpolation":"STEP",
					"output":29
				},
				{
					"input":24,
					"interpolation":"LINEAR",
					"output":30
				},
				{
					"input":24,
					"interpolation":"LINEAR",
					"output":31
				}
			]
		},
		{
			"channels":[
				{
					"sampler":0,
					"target":{
						"node":3,
						"path":"translation"
					}
				},
				{
					"sampler":1,
					"target":{
						"node":3,
						"path":"rotation"
					}
				},
				{
					"sampler":2,
					"target":{
						"node":3,
						"path":"scale"
					}
				},
				{
					"sampler":3,
					"target":{
						"node":2,
						"path":"translation"
					}
				},
				{
					"sampler":4,
					"target":{
						"node":2,
						"path":"rotation"
					}
				},
				{
					"sampler":5,
					"target":{
						"node":2,
						"path":"scale"
					}
				},
				{
					"sampler":6,
					"target":{
						"node":0,
						"path":"translation"
					}
				},
				{
					"sampler":7,
					"target":{
						"node":0,
						"path":"rotation"
					}
				},
				{
					"sampler":8,
					"target":{
						"node":0,
						"path":"scale"
					}
				},
				{
					"sampler":9,
					"target":{
						"node":1,
						"path":"translation"
					}
				},
				{
					"sampler":10,
					"target":{
						"node":1,
						"path":"rotation"
					}
				},
				{
					"sampler":11,
					"target":{
						"node":1,
						"path":"scale"
					}
				},
				{
					"sampler":12,
					"target":{
						"node":4,
						"path":"translation"
					}
				},
				{
					"sampler":13,
					"target":{
						"node":4,
						"path":"rotation"
					}
				}
			],
			"name":"Bee.004Action_FoM_Bee_Red-001",
			"samplers":[
				{
					"input":16,
					"interpolation":"STEP",
					"output":32
				},
				{
					"input":16,
					"interpolation":"STEP",
					"output":33
				},
				{
					"input":16,
					"interpolation":"STEP",
					"output":34
				},
				{
					"input":16,
					"interpolation":"STEP",
					"output":35
				},
				{
					"input":16,
					"interpolation":"STEP",
					"output":36
				},
				{
					"input":16,
					"interpolation":"STEP",
					"output":37
				},
				{
					"input":16,
					"interpolation":"STEP",
					"output":38
				},
				{
					"input":24,
					"interpolation":"LINEAR",
					"output":39
				},
				{
					"input":16,
					"interpolation":"STEP",
					"output":40
				},
				{
					"input":16,
					"interpolation":"STEP",
					"output":41
				},
				{
					"input":24,
					"interpolation":"LINEAR",
					"output":42
				},
				{
					"input":16,
					"interpolation":"STEP",
					"output":43
				},
				{
					"input":24,
					"interpolation":"LINEAR",
					"output":44
				},
				{
					"input":24,
					"interpolation":"LINEAR",
					"output":45
				}
			]
		},
		{
			"channels":[
				{
					"sampler":0,
					"target":{
						"node":3,
						"path":"translation"
					}
				},
				{
					"sampler":1,
					"target":{
						"node":3,
						"path":"rotation"
					}
				},
				{
					"sampler":2,
					"target":{
						"node":3,
						"path":"scale"
					}
				},
				{
					"sampler":3,
					"target":{
						"node":2,
						"path":"translation"
					}
				},
				{
					"sampler":4,
					"target":{
						"node":2,
						"path":"rotation"
					}
				},
				{
					"sampler":5,
					"target":{
						"node":2,
						"path":"scale"
					}
				},
				{
					"sampler":6,
					"target":{
						"node":0,
						"path":"translation"
					}
				},
				{
					"sampler":7,
					"target":{
						"node":0,
						"path":"rotation"
					}
				},
				{
					"sampler":8,
					"target":{
						"node":0,
						"path":"scale"
					}
				},
				{
					"sampler":9,
					"target":{
						"node":1,
						"path":"translation"
					}
				},
				{
					"sampler":10,
					"target":{
						"node":1,
						"path":"rotation"
					}
				},
				{
					"sampler":11,
					"target":{
						"node":1,
						"path":"scale"
					}
				},
				{
					"sampler":12,
					"target":{
						"node":4,
						"path":"translation"
					}
				},
				{
					"sampler":13,
					"target":{
						"node":4,
						"path":"rotation"
					}
				}
			],
			"name":"FoM_Bee_Red-001Action.001",
			"samplers":[
				{
					"input":46,
					"interpolation":"STEP",
					"output":47
				},
				{
					"input":46,
					"interpolation":"STEP",
					"output":48
				},
				{
					"input":46,
					"interpolation":"STEP",
					"output":49
				},
				{
					"input":46,
					"interpolation":"STEP",
					"output":50
				},
				{
					"input":46,
					"interpolation":"STEP",
					"output":51
				},
				{
					"input":46,
					"interpolation":"STEP",
					"output":52
				},
				{
					"input":46,
					"interpolation":"STEP",
					"output":53
				},
				{
					"input":46,
					"interpolation":"STEP",
					"output":54
				},
				{
					"input":46,
					"interpolation":"STEP",
					"output":55
				},
				{
					"input":46,
					"interpolation":"STEP",
					"output":56
				},
				{
					"input":46,
					"interpolation":"STEP",
					"output":57
				},
				{
					"input":46,
					"interpolation":"STEP",
					"output":58
				},
				{
					"input":59,
					"interpolation":"LINEAR",
					"output":60
				},
				{
					"input":59,
					"interpolation":"LINEAR",
					"output":61
				}
			]
		}
	],
	"skins":[
		{
			"inverseBindMatrices":62,
			"joints":[
				3,
				2,
				0,
				1
			],
			"name":"FoM_Bee_Blue-002"
		}
	],
	"accessors":[
		{
			"bufferView":0,
			"componentType":5126,
			"count":2,
			"max":[
				2.0833333333333335
			],
			"min":[
				0
			],
			"type":"SCALAR"
		},
		{
			"bufferView":1,
			"componentType":5126,
			"count":2,
			"type":"VEC3"
		},
		{
			"bufferView":2,
			"componentType":5126,
			"count":2,
			"type":"VEC4"
		},
		{
			"bufferView":3,
			"componentType":5126,
			"count":2,
			"type":"VEC3"
		},
		{
			"bufferView":4,
			"componentType":5126,
			"count":2,
			"type":"VEC3"
		},
		{
			"bufferView":5,
			"componentType":5126,
			"count":2,
			"type":"VEC4"
		},
		{
			"bufferView":6,
			"componentType":5126,
			"count":2,
			"type":"VEC3"
		},
		{
			"bufferView":7,
			"componentType":5126,
			"count":2,
			"type":"VEC3"
		},
		{
			"bufferView":8,
			"componentType":5126,
			"count":51,
			"max":[
				2.0833333333333335
			],
			"min":[
				0
			],
			"type":"SCALAR"
		},
		{
			"bufferView":9,
			"componentType":5126,
			"count":51,
			"type":"VEC4"
		},
		{
			"bufferView":10,
			"componentType":5126,
			"count":2,
			"type":"VEC3"
		},
		{
			"bufferView":11,
			"componentType":5126,
			"count":2,
			"type":"VEC3"
		},
		{
			"bufferView":12,
			"componentType":5126,
			"count":51,
			"type":"VEC4"
		},
		{
			"bufferView":13,
			"componentType":5126,
			"count":2,
			"type":"VEC3"
		},
		{
			"bufferView":14,
			"componentType":5126,
			"count":51,
			"type":"VEC3"
		},
		{
			"bufferView":15,
			"componentType":5126,
			"count":51,
			"type":"VEC4"
		},
		{
			"bufferView":16,
			"componentType":5126,
			"count":2,
			"max":[
				2
			],
			"min":[
				0
			],
			"type":"SCALAR"
		},
		{
			"bufferView":17,
			"componentType":5126,
			"count":2,
			"type":"VEC3"
		},
		{
			"bufferView":18,
			"componentType":5126,
			"count":2,
			"type":"VEC4"
		},
		{
			"bufferView":19,
			"componentType":5126,
			"count":2,
			"type":"VEC3"
		},
		{
			"bufferView":20,
			"componentType":5126,
			"count":2,
			"type":"VEC3"
		},
		{
			"bufferView":21,
			"componentType":5126,
			"count":2,
			"type":"VEC4"
		},
		{
			"bufferView":22,
			"componentType":5126,
			"count":2,
			"type":"VEC3"
		},
		{
			"bufferView":23,
			"componentType":5126,
			"count":2,
			"type":"VEC3"
		},
		{
			"bufferView":24,
			"componentType":5126,
			"count":49,
			"max":[
				2
			],
			"min":[
				0
			],
			"type":"SCALAR"
		},
		{
			"bufferView":25,
			"componentType":5126,
			"count":49,
			"type":"VEC4"
		},
		{
			"bufferView":26,
			"componentType":5126,
			"count":2,
			"type":"VEC3"
		},
		{
			"bufferView":27,
			"componentType":5126,
			"count":2,
			"type":"VEC3"
		},
		{
			"bufferView":28,
			"componentType":5126,
			"count":49,
			"type":"VEC4"
		},
		{
			"bufferView":29,
			"componentType":5126,
			"count":2,
			"type":"VEC3"
		},
		{
			"bufferView":30,
			"componentType":5126,
			"count":49,
			"type":"VEC3"
		},
		{
			"bufferView":31,
			"componentType":5126,
			"count":49,
			"type":"VEC4"
		},
		{
			"bufferView":32,
			"componentType":5126,
			"count":2,
			"type":"VEC3"
		},
		{
			"bufferView":33,
			"componentType":5126,
			"count":2,
			"type":"VEC4"
		},
		{
			"bufferView":34,
			"componentType":5126,
			"count":2,
			"type":"VEC3"
		},
		{
			"bufferView":35,
			"componentType":5126,
			"count":2,
			"type":"VEC3"
		},
		{
			"bufferView":36,
			"componentType":5126,
			"count":2,
			"type":"VEC4"
		},
		{
			"bufferView":37,
			"componentType":5126,
			"count":2,
			"type":"VEC3"
		},
		{
			"bufferView":38,
			"componentType":5126,
			"count":2,
			"type":"VEC3"
		},
		{
			"bufferView":39,
			"componentType":5126,
			"count":49,
			"type":"VEC4"
		},
		{
			"bufferView":40,
			"componentType":5126,
			"count":2,
			"type":"VEC3"
		},
		{
			"bufferView":41,
			"componentType":5126,
			"count":2,
			"type":"VEC3"
		},
		{
			"bufferView":42,
			"componentType":5126,
			"count":49,
			"type":"VEC4"
		},
		{
			"bufferView":43,
			"componentType":5126,
			"count":2,
			"type":"VEC3"
		},
		{
			"bufferView":44,
			"componentType":5126,
			"count":49,
			"type":"VEC3"
		},
		{
			"bufferView":45,
			"componentType":5126,
			"count":49,
			"type":"VEC4"
		},
		{
			"bufferView":46,
			"componentType":5126,
			"count":2,
			"max":[
				0.3333333333333333
			],
			"min":[
				0
			],
			"type":"SCALAR"
		},
		{
			"bufferView":47,
			"componentType":5126,
			"count":2,
			"type":"VEC3"
		},
		{
			"bufferView":48,
			"componentType":5126,
			"count":2,
			"type":"VEC4"
		},
		{
			"bufferView":49,
			"componentType":5126,
			"count":2,
			"type":"VEC3"
		},
		{
			"bufferView":50,
			"componentType":5126,
			"count":2,
			"type":"VEC3"
		},
		{
			"bufferView":51,
			"componentType":5126,
			"count":2,
			"type":"VEC4"
		},
		{
			"bufferView":52,
			"componentType":5126,
			"count":2,
			"type":"VEC3"
		},
		{
			"bufferView":53,
			"componentType":5126,
			"count":2,
			"type":"VEC3"
		},
		{
			"bufferView":54,
			"componentType":5126,
			"count":2,
			"type":"VEC4"
		},
		{
			"bufferView":55,
			"componentType":5126,
			"count":2,
			"type":"VEC3"
		},
		{
			"bufferView":56,
			"componentType":5126,
			"count":2,
			"type":"VEC3"
		},
		{
			"bufferView":57,
			"componentType":5126,
			"count":2,
			"type":"VEC4"
		},
		{
			"bufferView":58,
			"componentType":5126,
			"count":2,
			"type":"VEC3"
		},
		{
			"bufferView":59,
			"componentType":5126,
			"count":9,
			"max":[
				0.3333333333333333
			],
			"min":[
				0
			],
			"type":"SCALAR"
		},
		{
			"bufferView":60,
			"componentType":5126,
			"count":9,
			"type":"VEC3"
		},
		{
			"bufferView":61,
			"componentType":5126,
			"count":9,
			"type":"VEC4"
		},
		{
			"bufferView":62,
			"componentType":5126,
			"count":4,
			"type":"MAT4"
		}
	],
	"bufferViews":[
		{
			"buffer":0,
			"byteLength":8,
			"byteOffset":0
		},
		{
			"buffer":0,
			"byteLength":24,
			"byteOffset":8
		},
		{
			"buffer":0,
			"byteLength":32,
			"byteOffset":32
		},
		{
			"buffer":0,
			"byteLength":24,
			"byteOffset":64
		},
		{
			"buffer":0,
			"byteLength":24,
			"byteOffset":88
		},
		{
			"buffer":0,
			"byteLength":32,
			"byteOffset":112
		},
		{
			"buffer":0,
			"byteLength":24,
			"byteOffset":144
		},
		{
			"buffer":0,
			"byteLength":24,
			"byteOffset":168
		},
		{
			"buffer":0,
			"byteLength":204,
			"byteOffset":192
		},
		{
			"buffer":0,
			"byteLength":816,
			"byteOffset":396
		},
		{
			"buffer":0,
			"byteLength":24,
			"byteOffset":1212
		},
		{
			"buffer":0,
			"byteLength":24,
			"byteOffset":1236
		},
		{
			"buffer":0,
			"byteLength":816,
			"byteOffset":1260
		},
		{
			"buffer":0,
			"byteLength":24,
			"byteOffset":2076
		},
		{
			"buffer":0,
			"byteLength":612,
			"byteOffset":2100
		},
		{
			"buffer":0,
			"byteLength":816,
			"byteOffset":2712
		},
		{
			"buffer":0,
			"byteLength":8,
			"byteOffset":3528
		},
		{
			"buffer":0,
			"byteLength":24,
			"byteOffset":3536
		},
		{
			"buffer":0,
			"byteLength":32,
			"byteOffset":3560
		},
		{
			"buffer":0,
			"byteLength":24,
			"byteOffset":3592
		},
		{
			"buffer":0,
			"byteLength":24,
			"byteOffset":3616
		},
		{
			"buffer":0,
			"byteLength":32,
			"byteOffset":3640
		},
		{
			"buffer":0,
			"byteLength":24,
			"byteOffset":3672
		},
		{
			"buffer":0,
			"byteLength":24,
			"byteOffset":3696
		},
		{
			"buffer":0,
			"byteLength":196,
			"byteOffset":3720
		},
		{
			"buffer":0,
			"byteLength":784,
			"byteOffset":3916
		},
		{
			"buffer":0,
			"byteLength":24,
			"byteOffset":4700
		},
		{
			"buffer":0,
			"byteLength":24,
			"byteOffset":4724
		},
		{
			"buffer":0,
			"byteLength":784,
			"byteOffset":4748
		},
		{
			"buffer":0,
			"byteLength":24,
			"byteOffset":5532
		},
		{
			"buffer":0,
			"byteLength":588,
			"byteOffset":5556
		},
		{
			"buffer":0,
			"byteLength":784,
			"byteOffset":6144
		},
		{
			"buffer":0,
			"byteLength":24,
			"byteOffset":6928
		},
		{
			"buffer":0,
			"byteLength":32,
			"byteOffset":6952
		},
		{
			"buffer":0,
			"byteLength":24,
			"byteOffset":6984
		},
		{
			"buffer":0,
			"byteLength":24,
			"byteOffset":7008
		},
		{
			"buffer":0,
			"byteLength":32,
			"byteOffset":7032
		},
		{
			"buffer":0,
			"byteLength":24,
			"byteOffset":7064
		},
		{
			"buffer":0,
			"byteLength":24,
			"byteOffset":7088
		},
		{
			"buffer":0,
			"byteLength":784,
			"byteOffset":7112
		},
		{
			"buffer":0,
			"byteLength":24,
			"byteOffset":7896
		},
		{
			"buffer":0,
			"byteLength":24,
			"byteOffset":7920
		},
		{
			"buffer":0,
			"byteLength":784,
			"byteOffset":7944
		},
		{
			"buffer":0,
			"byteLength":24,
			"byteOffset":8728
		},
		{
			"buffer":0,
			"byteLength":588,
			"byteOffset":8752
		},
		{
			"buffer":0,
			"byteLength":784,
			"byteOffset":9340
		},
		{
			"buffer":0,
			"byteLength":8,
			"byteOffset":10124
		},
		{
			"buffer":0,
			"byteLength":24,
			"byteOffset":10132
		},
		{
			"buffer":0,
			"byteLength":32,
			"byteOffset":10156
		},
		{
			"buffer":0,
			"byteLength":24,
			"byteOffset":10188
		},
		{
			"buffer":0,
			"byteLength":24,
			"byteOffset":10212
		},
		{
			"buffer":0,
			"byteLength":32,
			"byteOffset":10236
		},
		{
			"buffer":0,
			"byteLength":24,
			"byteOffset":10268
		},
		{
			"buffer":0,
			"byteLength":24,
			"byteOffset":10292
		},
		{
			"buffer":0,
			"byteLength":32,
			"byteOffset":10316
		},
		{
			"buffer":0,
			"byteLength":24,
			"byteOffset":10348
		},
		{
			"buffer":0,
			"byteLength":24,
			"byteOffset":10372
		},
		{
			"buffer":0,
			"byteLength":32,
			"byteOffset":10396
		},
		{
			"buffer":0,
			"byteLength":24,
			"byteOffset":10428
		},
		{
			"buffer":0,
			"byteLength":36,
			"byteOffset":10452
		},
		{
			"buffer":0,
			"byteLength":108,
			"byteOffset":10488
		},
		{
			"buffer":0,
			"byteLength":144,
			"byteOffset":10596
		},
		{
			"buffer":0,
			"byteLength":256,
			"byteOffset":10740
		}
	],
	"buffers":[
		{
			"byteLength":10996,
			"uri":"data:application/octet-stream;base64,"
		}
	]
}
