{
	"asset":{
		"copyright":"CultureConnection",
		"generator":"Khronos glTF Blender I/O v3.6.27",
		"version":"2.0"
	},
	"scene":0,
	"scenes":[
		{
			"name":"Scene",
			"nodes":[
				0
			]
		}
	],
	"nodes":[
		{
			"mesh":0,
			"name":"BodyGreen.001",
			"rotation":[
				-0.08715574443340302,
				0,
				0,
				0.9961947798728943
			]
		}
	],
	"materials":[
		{
			"doubleSided":true,
			"name":"Bee_Green",
			"pbrMetallicRoughness":{
				"baseColorTexture":{
					"index":0
				},
				"metallicFactor":0,
				"metallicRoughnessTexture":{
					"index":1
				}
			}
		}
	],
	"meshes":[
		{
			"name":"\ud050\ube0c.012",
			"primitives":[
				{
					"attributes":{
						"POSITION":0,
						"NORMAL":1,
						"TEXCOORD_0":2,
						"TEXCOORD_1":3
					},
					"indices":4,
					"material":0
				}
			]
		}
	],
	"textures":[
		{
			"sampler":0,
			"source":0
		},
		{
			"sampler":0,
			"source":1
		}
	],
	"images":[
		{
			"bufferView":5,
			"mimeType":"image/png",
			"name":"Image_0"
		},
		{
			"bufferView":6,
			"mimeType":"image/png",
			"name":"Image_1"
		}
	],
	"accessors":[
		{
			"bufferView":0,
			"componentType":5126,
			"count":4825,
			"max":[
				0.855656623840332,
				1.1248235702514648,
				1.105214238166809
			],
			"min":[
				-0.8556565046310425,
				-0.8252922296524048,
				-1.594346284866333
			],
			"type":"VEC3"
		},
		{
			"bufferView":1,
			"componentType":5126,
			"count":4825,
			"type":"VEC3"
		},
		{
			"bufferView":2,
			"componentType":5126,
			"count":4825,
			"type":"VEC2"
		},
		{
			"bufferView":3,
			"componentType":5126,
			"count":4825,
			"type":"VEC2"
		},
		{
			"bufferView":4,
			"componentType":5123,
			"count":20304,
			"type":"SCALAR"
		}
	],
	"bufferViews":[
		{
			"buffer":0,
			"byteLength":57900,
			"byteOffset":0,
			"target":34962
		},
		{
			"buffer":0,
			"byteLength":57900,
			"byteOffset":57900,
			"target":34962
		},
		{
			"buffer":0,
			"byteLength":38600,
			"byteOffset":115800,
			"target":34962
		},
		{
			"buffer":0,
			"byteLength":38600,
			"byteOffset":154400,
			"target":34962
		},
		{
			"buffer":0,
			"byteLength":40608,
			"byteOffset":193000,
			"target":34963
		},
		{
			"buffer":0,
			"byteLength":30583,
			"byteOffset":233608
		},
		{
			"buffer":0,
			"byteLength":5815,
			"byteOffset":264192
		}
	],
	"samplers":[
		{
			"magFilter":9729,
			"minFilter":9987
		}
	],
	"buffers":[
		{
			"byteLength":270008,
			"uri":"data:application/octet-stream;base64,"
		}
	]
}
