{
	"asset":{
		"copyright":"CultureConnection",
		"generator":"Khronos glTF Blender I/O v3.6.27",
		"version":"2.0"
	},
	"scene":0,
	"scenes":[
		{
			"name":"Scene",
			"nodes":[
				5
			]
		}
	],
	"nodes":[
		{
			"name":"Wing_R",
			"rotation":[
				-0.2603713274002075,
				0.42996275424957275,
				0.4299658238887787,
				0.7499788403511047
			],
			"scale":[
				0.9999999403953552,
				0.9999999403953552,
				1
			],
			"translation":[
				-0.1454969197511673,
				0.31226667761802673,
				0.008631379343569279
			]
		},
		{
			"name":"Wing_L",
			"rotation":[
				-0.260371595621109,
				-0.4299626648426056,
				-0.4299658238887787,
				0.74997878074646
			],
			"scale":[
				1,
				1.0000001192092896,
				1
			],
			"translation":[
				0.1454969197511673,
				0.31226643919944763,
				0.008631275035440922
			]
		},
		{
			"children":[
				0,
				1
			],
			"name":"Wings",
			"rotation":[
				-0.04197371378540993,
				-1.6621341103473242e-07,
				-3.654620606141634e-09,
				0.9991186857223511
			],
			"scale":[
				1,
				0.9999999403953552,
				1
			],
			"translation":[
				-2.0841451231490282e-08,
				0.3809567093849182,
				0.08223770558834076
			]
		},
		{
			"children":[
				2
			],
			"name":"Body",
			"rotation":[
				0.0419732891023159,
				1.2660304093969899e-07,
				5.31861932273614e-09,
				0.9991187453269958
			],
			"scale":[
				1,
				1,
				1.0000001192092896
			],
			"translation":[
				0,
				0.04302067682147026,
				-0.12708312273025513
			]
		},
		{
			"mesh":0,
			"name":"BodyGreen.001",
			"skin":0
		},
		{
			"children":[
				4,
				3
			],
			"name":"FoM_Bee_Green-003",
			"rotation":[
				-0.08715575188398361,
				0,
				0,
				0.9961947798728943
			]
		}
	],
	"animations":[
		{
			"channels":[
				{
					"sampler":0,
					"target":{
						"node":3,
						"path":"translation"
					}
				},
				{
					"sampler":1,
					"target":{
						"node":3,
						"path":"rotation"
					}
				},
				{
					"sampler":2,
					"target":{
						"node":3,
						"path":"scale"
					}
				},
				{
					"sampler":3,
					"target":{
						"node":2,
						"path":"translation"
					}
				},
				{
					"sampler":4,
					"target":{
						"node":2,
						"path":"rotation"
					}
				},
				{
					"sampler":5,
					"target":{
						"node":2,
						"path":"scale"
					}
				},
				{
					"sampler":6,
					"target":{
						"node":0,
						"path":"translation"
					}
				},
				{
					"sampler":7,
					"target":{
						"node":0,
						"path":"rotation"
					}
				},
				{
					"sampler":8,
					"target":{
						"node":0,
						"path":"scale"
					}
				},
				{
					"sampler":9,
					"target":{
						"node":1,
						"path":"translation"
					}
				},
				{
					"sampler":10,
					"target":{
						"node":1,
						"path":"rotation"
					}
				},
				{
					"sampler":11,
					"target":{
						"node":1,
						"path":"scale"
					}
				},
				{
					"sampler":12,
					"target":{
						"node":5,
						"path":"translation"
					}
				},
				{
					"sampler":13,
					"target":{
						"node":5,
						"path":"rotation"
					}
				}
			],
			"name":"Bee.004Action_FoM_Bee_Red-002",
			"samplers":[
				{
					"input":8,
					"interpolation":"STEP",
					"output":9
				},
				{
					"input":8,
					"interpolation":"STEP",
					"output":10
				},
				{
					"input":8,
					"interpolation":"STEP",
					"output":11
				},
				{
					"input":8,
					"interpolation":"STEP",
					"output":12
				},
				{
					"input":8,
					"interpolation":"STEP",
					"output":13
				},
				{
					"input":8,
					"interpolation":"STEP",
					"output":14
				},
				{
					"input":8,
					"interpolation":"STEP",
					"output":15
				},
				{
					"input":16,
					"interpolation":"LINEAR",
					"output":17
				},
				{
					"input":8,
					"interpolation":"STEP",
					"output":18
				},
				{
					"input":8,
					"interpolation":"STEP",
					"output":19
				},
				{
					"input":16,
					"interpolation":"LINEAR",
					"output":20
				},
				{
					"input":8,
					"interpolation":"STEP",
					"output":21
				},
				{
					"input":16,
					"interpolation":"LINEAR",
					"output":22
				},
				{
					"input":16,
					"interpolation":"LINEAR",
					"output":23
				}
			]
		}
	],
	"materials":[
		{
			"doubleSided":true,
			"name":"Bee_Green",
			"pbrMetallicRoughness":{
				"baseColorTexture":{
					"index":0
				},
				"metallicFactor":0,
				"metallicRoughnessTexture":{
					"index":1
				}
			}
		}
	],
	"meshes":[
		{
			"name":"\ud050\ube0c.001",
			"primitives":[
				{
					"attributes":{
						"POSITION":0,
						"NORMAL":1,
						"TEXCOORD_0":2,
						"TEXCOORD_1":3,
						"JOINTS_0":4,
						"WEIGHTS_0":5
					},
					"indices":6,
					"material":0
				}
			]
		}
	],
	"textures":[
		{
			"sampler":0,
			"source":0
		},
		{
			"sampler":0,
			"source":1
		}
	],
	"images":[
		{
			"bufferView":7,
			"mimeType":"image/png",
			"name":"Image_0"
		},
		{
			"bufferView":8,
			"mimeType":"image/png",
			"name":"Image_1"
		}
	],
	"skins":[
		{
			"inverseBindMatrices":7,
			"joints":[
				3,
				2,
				0,
				1
			],
			"name":"FoM_Bee_Green-003"
		}
	],
	"accessors":[
		{
			"bufferView":0,
			"componentType":5126,
			"count":4825,
			"max":[
				0.855656623840332,
				1.1223393678665161,
				1.1083706617355347
			],
			"min":[
				-0.8556562662124634,
				-0.8684558272361755,
				-1.5701284408569336
			],
			"type":"VEC3"
		},
		{
			"bufferView":1,
			"componentType":5126,
			"count":4825,
			"type":"VEC3"
		},
		{
			"bufferView":2,
			"componentType":5126,
			"count":4825,
			"type":"VEC2"
		},
		{
			"bufferView":3,
			"componentType":5126,
			"count":4825,
			"type":"VEC2"
		},
		{
			"bufferView":4,
			"componentType":5121,
			"count":4825,
			"type":"VEC4"
		},
		{
			"bufferView":5,
			"componentType":5126,
			"count":4825,
			"type":"VEC4"
		},
		{
			"bufferView":6,
			"componentType":5123,
			"count":20304,
			"type":"SCALAR"
		},
		{
			"bufferView":9,
			"componentType":5126,
			"count":4,
			"type":"MAT4"
		},
		{
			"bufferView":10,
			"componentType":5126,
			"count":2,
			"max":[
				2.0833333333333335
			],
			"min":[
				0
			],
			"type":"SCALAR"
		},
		{
			"bufferView":11,
			"componentType":5126,
			"count":2,
			"type":"VEC3"
		},
		{
			"bufferView":12,
			"componentType":5126,
			"count":2,
			"type":"VEC4"
		},
		{
			"bufferView":13,
			"componentType":5126,
			"count":2,
			"type":"VEC3"
		},
		{
			"bufferView":14,
			"componentType":5126,
			"count":2,
			"type":"VEC3"
		},
		{
			"bufferView":15,
			"componentType":5126,
			"count":2,
			"type":"VEC4"
		},
		{
			"bufferView":16,
			"componentType":5126,
			"count":2,
			"type":"VEC3"
		},
		{
			"bufferView":17,
			"componentType":5126,
			"count":2,
			"type":"VEC3"
		},
		{
			"bufferView":18,
			"componentType":5126,
			"count":51,
			"max":[
				2.0833333333333335
			],
			"min":[
				0
			],
			"type":"SCALAR"
		},
		{
			"bufferView":19,
			"componentType":5126,
			"count":51,
			"type":"VEC4"
		},
		{
			"bufferView":20,
			"componentType":5126,
			"count":2,
			"type":"VEC3"
		},
		{
			"bufferView":21,
			"componentType":5126,
			"count":2,
			"type":"VEC3"
		},
		{
			"bufferView":22,
			"componentType":5126,
			"count":51,
			"type":"VEC4"
		},
		{
			"bufferView":23,
			"componentType":5126,
			"count":2,
			"type":"VEC3"
		},
		{
			"bufferView":24,
			"componentType":5126,
			"count":51,
			"type":"VEC3"
		},
		{
			"bufferView":25,
			"componentType":5126,
			"count":51,
			"type":"VEC4"
		}
	],
	"bufferViews":[
		{
			"buffer":0,
			"byteLength":57900,
			"byteOffset":0,
			"target":34962
		},
		{
			"buffer":0,
			"byteLength":57900,
			"byteOffset":57900,
			"target":34962
		},
		{
			"buffer":0,
			"byteLength":38600,
			"byteOffset":115800,
			"target":34962
		},
		{
			"buffer":0,
			"byteLength":38600,
			"byteOffset":154400,
			"target":34962
		},
		{
			"buffer":0,
			"byteLength":19300,
			"byteOffset":193000,
			"target":34962
		},
		{
			"buffer":0,
			"byteLength":77200,
			"byteOffset":212300,
			"target":34962
		},
		{
			"buffer":0,
			"byteLength":40608,
			"byteOffset":289500,
			"target":34963
		},
		{
			"buffer":0,
			"byteLength":30583,
			"byteOffset":330108
		},
		{
			"buffer":0,
			"byteLength":5815,
			"byteOffset":360692
		},
		{
			"buffer":0,
			"byteLength":256,
			"byteOffset":366508
		},
		{
			"buffer":0,
			"byteLength":8,
			"byteOffset":366764
		},
		{
			"buffer":0,
			"byteLength":24,
			"byteOffset":366772
		},
		{
			"buffer":0,
			"byteLength":32,
			"byteOffset":366796
		},
		{
			"buffer":0,
			"byteLength":24,
			"byteOffset":366828
		},
		{
			"buffer":0,
			"byteLength":24,
			"byteOffset":366852
		},
		{
			"buffer":0,
			"byteLength":32,
			"byteOffset":366876
		},
		{
			"buffer":0,
			"byteLength":24,
			"byteOffset":366908
		},
		{
			"buffer":0,
			"byteLength":24,
			"byteOffset":366932
		},
		{
			"buffer":0,
			"byteLength":204,
			"byteOffset":366956
		},
		{
			"buffer":0,
			"byteLength":816,
			"byteOffset":367160
		},
		{
			"buffer":0,
			"byteLength":24,
			"byteOffset":367976
		},
		{
			"buffer":0,
			"byteLength":24,
			"byteOffset":368000
		},
		{
			"buffer":0,
			"byteLength":816,
			"byteOffset":368024
		},
		{
			"buffer":0,
			"byteLength":24,
			"byteOffset":368840
		},
		{
			"buffer":0,
			"byteLength":612,
			"byteOffset":368864
		},
		{
			"buffer":0,
			"byteLength":816,
			"byteOffset":369476
		}
	],
	"samplers":[
		{
			"magFilter":9729,
			"minFilter":9987
		}
	],
	"buffers":[
		{
			"byteLength":370292,
			"uri":"data:application/octet-stream;base64,"
		}
	]
}
