{
	"asset":{
		"copyright":"CultureConnection",
		"generator":"Khronos glTF Blender I/O v3.6.27",
		"version":"2.0"
	},
	"scene":0,
	"scenes":[
		{
			"name":"Scene",
			"nodes":[
				5
			]
		}
	],
	"nodes":[
		{
			"name":"Wing_R",
			"rotation":[
				-0.26037123799324036,
				0.4299626350402832,
				0.42996570467948914,
				0.7499789595603943
			],
			"translation":[
				-0.1454969197511673,
				0.31226682662963867,
				0.008631373755633831
			]
		},
		{
			"name":"Wing_L",
			"rotation":[
				-0.2603713870048523,
				-0.4299626350402832,
				-0.42996570467948914,
				0.7499788999557495
			],
			"translation":[
				0.1454969197511673,
				0.3122667074203491,
				0.008631332777440548
			]
		},
		{
			"children":[
				0,
				1
			],
			"name":"Wings",
			"rotation":[
				-0.04197370633482933,
				-1.189668026313484e-07,
				-2.3028363660415607e-09,
				0.9991186857223511
			],
			"translation":[
				-1.4304067263992692e-08,
				0.38095685839653015,
				0.08223772048950195
			]
		},
		{
			"children":[
				2
			],
			"name":"Body",
			"rotation":[
				0.04197336360812187,
				8.689114849858015e-08,
				3.650324043036335e-09,
				0.9991186857223511
			],
			"translation":[
				0,
				0.04302068427205086,
				-0.12708312273025513
			]
		},
		{
			"mesh":0,
			"name":"BodyRed.001",
			"skin":0
		},
		{
			"children":[
				4,
				3
			],
			"name":"FoM_Bee_Red-002",
			"rotation":[
				-0.08715574443340302,
				0,
				0,
				0.9961947798728943
			]
		}
	],
	"animations":[
		{
			"channels":[
				{
					"sampler":0,
					"target":{
						"node":3,
						"path":"translation"
					}
				},
				{
					"sampler":1,
					"target":{
						"node":3,
						"path":"rotation"
					}
				},
				{
					"sampler":2,
					"target":{
						"node":3,
						"path":"scale"
					}
				},
				{
					"sampler":3,
					"target":{
						"node":2,
						"path":"translation"
					}
				},
				{
					"sampler":4,
					"target":{
						"node":2,
						"path":"rotation"
					}
				},
				{
					"sampler":5,
					"target":{
						"node":2,
						"path":"scale"
					}
				},
				{
					"sampler":6,
					"target":{
						"node":0,
						"path":"translation"
					}
				},
				{
					"sampler":7,
					"target":{
						"node":0,
						"path":"rotation"
					}
				},
				{
					"sampler":8,
					"target":{
						"node":0,
						"path":"scale"
					}
				},
				{
					"sampler":9,
					"target":{
						"node":1,
						"path":"translation"
					}
				},
				{
					"sampler":10,
					"target":{
						"node":1,
						"path":"rotation"
					}
				},
				{
					"sampler":11,
					"target":{
						"node":1,
						"path":"scale"
					}
				},
				{
					"sampler":12,
					"target":{
						"node":5,
						"path":"translation"
					}
				},
				{
					"sampler":13,
					"target":{
						"node":5,
						"path":"rotation"
					}
				}
			],
			"name":"Bee.004Action",
			"samplers":[
				{
					"input":8,
					"interpolation":"STEP",
					"output":9
				},
				{
					"input":8,
					"interpolation":"STEP",
					"output":10
				},
				{
					"input":8,
					"interpolation":"STEP",
					"output":11
				},
				{
					"input":8,
					"interpolation":"STEP",
					"output":12
				},
				{
					"input":8,
					"interpolation":"STEP",
					"output":13
				},
				{
					"input":8,
					"interpolation":"STEP",
					"output":14
				},
				{
					"input":8,
					"interpolation":"STEP",
					"output":15
				},
				{
					"input":16,
					"interpolation":"LINEAR",
					"output":17
				},
				{
					"input":8,
					"interpolation":"STEP",
					"output":18
				},
				{
					"input":8,
					"interpolation":"STEP",
					"output":19
				},
				{
					"input":16,
					"interpolation":"LINEAR",
					"output":20
				},
				{
					"input":8,
					"interpolation":"STEP",
					"output":21
				},
				{
					"input":16,
					"interpolation":"LINEAR",
					"output":22
				},
				{
					"input":16,
					"interpolation":"LINEAR",
					"output":23
				}
			]
		},
		{
			"channels":[
				{
					"sampler":0,
					"target":{
						"node":3,
						"path":"translation"
					}
				},
				{
					"sampler":1,
					"target":{
						"node":3,
						"path":"rotation"
					}
				},
				{
					"sampler":2,
					"target":{
						"node":3,
						"path":"scale"
					}
				},
				{
					"sampler":3,
					"target":{
						"node":2,
						"path":"translation"
					}
				},
				{
					"sampler":4,
					"target":{
						"node":2,
						"path":"rotation"
					}
				},
				{
					"sampler":5,
					"target":{
						"node":2,
						"path":"scale"
					}
				},
				{
					"sampler":6,
					"target":{
						"node":0,
						"path":"translation"
					}
				},
				{
					"sampler":7,
					"target":{
						"node":0,
						"path":"rotation"
					}
				},
				{
					"sampler":8,
					"target":{
						"node":0,
						"path":"scale"
					}
				},
				{
					"sampler":9,
					"target":{
						"node":1,
						"path":"translation"
					}
				},
				{
					"sampler":10,
					"target":{
						"node":1,
						"path":"rotation"
					}
				},
				{
					"sampler":11,
					"target":{
						"node":1,
						"path":"scale"
					}
				},
				{
					"sampler":12,
					"target":{
						"node":5,
						"path":"translation"
					}
				},
				{
					"sampler":13,
					"target":{
						"node":5,
						"path":"rotation"
					}
				}
			],
			"name":"Bee.004Action_FoM_Bee_Green-001",
			"samplers":[
				{
					"input":24,
					"interpolation":"STEP",
					"output":25
				},
				{
					"input":24,
					"interpolation":"STEP",
					"output":26
				},
				{
					"input":24,
					"interpolation":"STEP",
					"output":27
				},
				{
					"input":24,
					"interpolation":"STEP",
					"output":28
				},
				{
					"input":24,
					"interpolation":"STEP",
					"output":29
				},
				{
					"input":24,
					"interpolation":"STEP",
					"output":30
				},
				{
					"input":24,
					"interpolation":"STEP",
					"output":31
				},
				{
					"input":32,
					"interpolation":"LINEAR",
					"output":33
				},
				{
					"input":24,
					"interpolation":"STEP",
					"output":34
				},
				{
					"input":24,
					"interpolation":"STEP",
					"output":35
				},
				{
					"input":32,
					"interpolation":"LINEAR",
					"output":36
				},
				{
					"input":24,
					"interpolation":"STEP",
					"output":37
				},
				{
					"input":32,
					"interpolation":"LINEAR",
					"output":38
				},
				{
					"input":32,
					"interpolation":"LINEAR",
					"output":39
				}
			]
		},
		{
			"channels":[
				{
					"sampler":0,
					"target":{
						"node":3,
						"path":"translation"
					}
				},
				{
					"sampler":1,
					"target":{
						"node":3,
						"path":"rotation"
					}
				},
				{
					"sampler":2,
					"target":{
						"node":3,
						"path":"scale"
					}
				},
				{
					"sampler":3,
					"target":{
						"node":2,
						"path":"translation"
					}
				},
				{
					"sampler":4,
					"target":{
						"node":2,
						"path":"rotation"
					}
				},
				{
					"sampler":5,
					"target":{
						"node":2,
						"path":"scale"
					}
				},
				{
					"sampler":6,
					"target":{
						"node":0,
						"path":"translation"
					}
				},
				{
					"sampler":7,
					"target":{
						"node":0,
						"path":"rotation"
					}
				},
				{
					"sampler":8,
					"target":{
						"node":0,
						"path":"scale"
					}
				},
				{
					"sampler":9,
					"target":{
						"node":1,
						"path":"translation"
					}
				},
				{
					"sampler":10,
					"target":{
						"node":1,
						"path":"rotation"
					}
				},
				{
					"sampler":11,
					"target":{
						"node":1,
						"path":"scale"
					}
				},
				{
					"sampler":12,
					"target":{
						"node":5,
						"path":"translation"
					}
				},
				{
					"sampler":13,
					"target":{
						"node":5,
						"path":"rotation"
					}
				}
			],
			"name":"Bee.004Action_FoM_Bee_Red-001",
			"samplers":[
				{
					"input":24,
					"interpolation":"STEP",
					"output":40
				},
				{
					"input":24,
					"interpolation":"STEP",
					"output":41
				},
				{
					"input":24,
					"interpolation":"STEP",
					"output":42
				},
				{
					"input":24,
					"interpolation":"STEP",
					"output":43
				},
				{
					"input":24,
					"interpolation":"STEP",
					"output":44
				},
				{
					"input":24,
					"interpolation":"STEP",
					"output":45
				},
				{
					"input":24,
					"interpolation":"STEP",
					"output":46
				},
				{
					"input":32,
					"interpolation":"LINEAR",
					"output":47
				},
				{
					"input":24,
					"interpolation":"STEP",
					"output":48
				},
				{
					"input":24,
					"interpolation":"STEP",
					"output":49
				},
				{
					"input":32,
					"interpolation":"LINEAR",
					"output":50
				},
				{
					"input":24,
					"interpolation":"STEP",
					"output":51
				},
				{
					"input":32,
					"interpolation":"LINEAR",
					"output":52
				},
				{
					"input":32,
					"interpolation":"LINEAR",
					"output":53
				}
			]
		},
		{
			"channels":[
				{
					"sampler":0,
					"target":{
						"node":3,
						"path":"translation"
					}
				},
				{
					"sampler":1,
					"target":{
						"node":3,
						"path":"rotation"
					}
				},
				{
					"sampler":2,
					"target":{
						"node":3,
						"path":"scale"
					}
				},
				{
					"sampler":3,
					"target":{
						"node":2,
						"path":"translation"
					}
				},
				{
					"sampler":4,
					"target":{
						"node":2,
						"path":"rotation"
					}
				},
				{
					"sampler":5,
					"target":{
						"node":2,
						"path":"scale"
					}
				},
				{
					"sampler":6,
					"target":{
						"node":0,
						"path":"translation"
					}
				},
				{
					"sampler":7,
					"target":{
						"node":0,
						"path":"rotation"
					}
				},
				{
					"sampler":8,
					"target":{
						"node":0,
						"path":"scale"
					}
				},
				{
					"sampler":9,
					"target":{
						"node":1,
						"path":"translation"
					}
				},
				{
					"sampler":10,
					"target":{
						"node":1,
						"path":"rotation"
					}
				},
				{
					"sampler":11,
					"target":{
						"node":1,
						"path":"scale"
					}
				},
				{
					"sampler":12,
					"target":{
						"node":5,
						"path":"translation"
					}
				},
				{
					"sampler":13,
					"target":{
						"node":5,
						"path":"rotation"
					}
				}
			],
			"name":"FoM_Bee_Red-001Action.001",
			"samplers":[
				{
					"input":54,
					"interpolation":"STEP",
					"output":55
				},
				{
					"input":54,
					"interpolation":"STEP",
					"output":56
				},
				{
					"input":54,
					"interpolation":"STEP",
					"output":57
				},
				{
					"input":54,
					"interpolation":"STEP",
					"output":58
				},
				{
					"input":54,
					"interpolation":"STEP",
					"output":59
				},
				{
					"input":54,
					"interpolation":"STEP",
					"output":60
				},
				{
					"input":54,
					"interpolation":"STEP",
					"output":61
				},
				{
					"input":54,
					"interpolation":"STEP",
					"output":62
				},
				{
					"input":54,
					"interpolation":"STEP",
					"output":63
				},
				{
					"input":54,
					"interpolation":"STEP",
					"output":64
				},
				{
					"input":54,
					"interpolation":"STEP",
					"output":65
				},
				{
					"input":54,
					"interpolation":"STEP",
					"output":66
				},
				{
					"input":67,
					"interpolation":"LINEAR",
					"output":68
				},
				{
					"input":67,
					"interpolation":"LINEAR",
					"output":69
				}
			]
		}
	],
	"materials":[
		{
			"doubleSided":true,
			"name":"Bee_Red",
			"pbrMetallicRoughness":{
				"baseColorTexture":{
					"index":0
				},
				"metallicFactor":0,
				"metallicRoughnessTexture":{
					"index":1
				}
			}
		}
	],
	"meshes":[
		{
			"name":"\ud050\ube0c.012",
			"primitives":[
				{
					"attributes":{
						"POSITION":0,
						"NORMAL":1,
						"TEXCOORD_0":2,
						"TEXCOORD_1":3,
						"JOINTS_0":4,
						"WEIGHTS_0":5
					},
					"indices":6,
					"material":0
				}
			]
		}
	],
	"textures":[
		{
			"sampler":0,
			"source":0
		},
		{
			"sampler":0,
			"source":1
		}
	],
	"images":[
		{
			"bufferView":7,
			"mimeType":"image/png",
			"name":"Image_0"
		},
		{
			"bufferView":8,
			"mimeType":"image/png",
			"name":"Image_1"
		}
	],
	"skins":[
		{
			"inverseBindMatrices":7,
			"joints":[
				3,
				2,
				0,
				1
			],
			"name":"FoM_Bee_Red-002"
		}
	],
	"accessors":[
		{
			"bufferView":0,
			"componentType":5126,
			"count":4825,
			"max":[
				0.855656623840332,
				1.1223397254943848,
				1.1083706617355347
			],
			"min":[
				-0.8556565046310425,
				-0.8684558868408203,
				-1.5701285600662231
			],
			"type":"VEC3"
		},
		{
			"bufferView":1,
			"componentType":5126,
			"count":4825,
			"type":"VEC3"
		},
		{
			"bufferView":2,
			"componentType":5126,
			"count":4825,
			"type":"VEC2"
		},
		{
			"bufferView":3,
			"componentType":5126,
			"count":4825,
			"type":"VEC2"
		},
		{
			"bufferView":4,
			"componentType":5121,
			"count":4825,
			"type":"VEC4"
		},
		{
			"bufferView":5,
			"componentType":5126,
			"count":4825,
			"type":"VEC4"
		},
		{
			"bufferView":6,
			"componentType":5123,
			"count":20304,
			"type":"SCALAR"
		},
		{
			"bufferView":9,
			"componentType":5126,
			"count":4,
			"type":"MAT4"
		},
		{
			"bufferView":10,
			"componentType":5126,
			"count":2,
			"max":[
				2.0833333333333335
			],
			"min":[
				0
			],
			"type":"SCALAR"
		},
		{
			"bufferView":11,
			"componentType":5126,
			"count":2,
			"type":"VEC3"
		},
		{
			"bufferView":12,
			"componentType":5126,
			"count":2,
			"type":"VEC4"
		},
		{
			"bufferView":13,
			"componentType":5126,
			"count":2,
			"type":"VEC3"
		},
		{
			"bufferView":14,
			"componentType":5126,
			"count":2,
			"type":"VEC3"
		},
		{
			"bufferView":15,
			"componentType":5126,
			"count":2,
			"type":"VEC4"
		},
		{
			"bufferView":16,
			"componentType":5126,
			"count":2,
			"type":"VEC3"
		},
		{
			"bufferView":17,
			"componentType":5126,
			"count":2,
			"type":"VEC3"
		},
		{
			"bufferView":18,
			"componentType":5126,
			"count":51,
			"max":[
				2.0833333333333335
			],
			"min":[
				0
			],
			"type":"SCALAR"
		},
		{
			"bufferView":19,
			"componentType":5126,
			"count":51,
			"type":"VEC4"
		},
		{
			"bufferView":20,
			"componentType":5126,
			"count":2,
			"type":"VEC3"
		},
		{
			"bufferView":21,
			"componentType":5126,
			"count":2,
			"type":"VEC3"
		},
		{
			"bufferView":22,
			"componentType":5126,
			"count":51,
			"type":"VEC4"
		},
		{
			"bufferView":23,
			"componentType":5126,
			"count":2,
			"type":"VEC3"
		},
		{
			"bufferView":24,
			"componentType":5126,
			"count":51,
			"type":"VEC3"
		},
		{
			"bufferView":25,
			"componentType":5126,
			"count":51,
			"type":"VEC4"
		},
		{
			"bufferView":26,
			"componentType":5126,
			"count":2,
			"max":[
				2
			],
			"min":[
				0
			],
			"type":"SCALAR"
		},
		{
			"bufferView":27,
			"componentType":5126,
			"count":2,
			"type":"VEC3"
		},
		{
			"bufferView":28,
			"componentType":5126,
			"count":2,
			"type":"VEC4"
		},
		{
			"bufferView":29,
			"componentType":5126,
			"count":2,
			"type":"VEC3"
		},
		{
			"bufferView":30,
			"componentType":5126,
			"count":2,
			"type":"VEC3"
		},
		{
			"bufferView":31,
			"componentType":5126,
			"count":2,
			"type":"VEC4"
		},
		{
			"bufferView":32,
			"componentType":5126,
			"count":2,
			"type":"VEC3"
		},
		{
			"bufferView":33,
			"componentType":5126,
			"count":2,
			"type":"VEC3"
		},
		{
			"bufferView":34,
			"componentType":5126,
			"count":49,
			"max":[
				2
			],
			"min":[
				0
			],
			"type":"SCALAR"
		},
		{
			"bufferView":35,
			"componentType":5126,
			"count":49,
			"type":"VEC4"
		},
		{
			"bufferView":36,
			"componentType":5126,
			"count":2,
			"type":"VEC3"
		},
		{
			"bufferView":37,
			"componentType":5126,
			"count":2,
			"type":"VEC3"
		},
		{
			"bufferView":38,
			"componentType":5126,
			"count":49,
			"type":"VEC4"
		},
		{
			"bufferView":39,
			"componentType":5126,
			"count":2,
			"type":"VEC3"
		},
		{
			"bufferView":40,
			"componentType":5126,
			"count":49,
			"type":"VEC3"
		},
		{
			"bufferView":41,
			"componentType":5126,
			"count":49,
			"type":"VEC4"
		},
		{
			"bufferView":42,
			"componentType":5126,
			"count":2,
			"type":"VEC3"
		},
		{
			"bufferView":43,
			"componentType":5126,
			"count":2,
			"type":"VEC4"
		},
		{
			"bufferView":44,
			"componentType":5126,
			"count":2,
			"type":"VEC3"
		},
		{
			"bufferView":45,
			"componentType":5126,
			"count":2,
			"type":"VEC3"
		},
		{
			"bufferView":46,
			"componentType":5126,
			"count":2,
			"type":"VEC4"
		},
		{
			"bufferView":47,
			"componentType":5126,
			"count":2,
			"type":"VEC3"
		},
		{
			"bufferView":48,
			"componentType":5126,
			"count":2,
			"type":"VEC3"
		},
		{
			"bufferView":49,
			"componentType":5126,
			"count":49,
			"type":"VEC4"
		},
		{
			"bufferView":50,
			"componentType":5126,
			"count":2,
			"type":"VEC3"
		},
		{
			"bufferView":51,
			"componentType":5126,
			"count":2,
			"type":"VEC3"
		},
		{
			"bufferView":52,
			"componentType":5126,
			"count":49,
			"type":"VEC4"
		},
		{
			"bufferView":53,
			"componentType":5126,
			"count":2,
			"type":"VEC3"
		},
		{
			"bufferView":54,
			"componentType":5126,
			"count":49,
			"type":"VEC3"
		},
		{
			"bufferView":55,
			"componentType":5126,
			"count":49,
			"type":"VEC4"
		},
		{
			"bufferView":56,
			"componentType":5126,
			"count":2,
			"max":[
				0.3333333333333333
			],
			"min":[
				0
			],
			"type":"SCALAR"
		},
		{
			"bufferView":57,
			"componentType":5126,
			"count":2,
			"type":"VEC3"
		},
		{
			"bufferView":58,
			"componentType":5126,
			"count":2,
			"type":"VEC4"
		},
		{
			"bufferView":59,
			"componentType":5126,
			"count":2,
			"type":"VEC3"
		},
		{
			"bufferView":60,
			"componentType":5126,
			"count":2,
			"type":"VEC3"
		},
		{
			"bufferView":61,
			"componentType":5126,
			"count":2,
			"type":"VEC4"
		},
		{
			"bufferView":62,
			"componentType":5126,
			"count":2,
			"type":"VEC3"
		},
		{
			"bufferView":63,
			"componentType":5126,
			"count":2,
			"type":"VEC3"
		},
		{
			"bufferView":64,
			"componentType":5126,
			"count":2,
			"type":"VEC4"
		},
		{
			"bufferView":65,
			"componentType":5126,
			"count":2,
			"type":"VEC3"
		},
		{
			"bufferView":66,
			"componentType":5126,
			"count":2,
			"type":"VEC3"
		},
		{
			"bufferView":67,
			"componentType":5126,
			"count":2,
			"type":"VEC4"
		},
		{
			"bufferView":68,
			"componentType":5126,
			"count":2,
			"type":"VEC3"
		},
		{
			"bufferView":69,
			"componentType":5126,
			"count":9,
			"max":[
				0.3333333333333333
			],
			"min":[
				0
			],
			"type":"SCALAR"
		},
		{
			"bufferView":70,
			"componentType":5126,
			"count":9,
			"type":"VEC3"
		},
		{
			"bufferView":71,
			"componentType":5126,
			"count":9,
			"type":"VEC4"
		}
	],
	"bufferViews":[
		{
			"buffer":0,
			"byteLength":57900,
			"byteOffset":0,
			"target":34962
		},
		{
			"buffer":0,
			"byteLength":57900,
			"byteOffset":57900,
			"target":34962
		},
		{
			"buffer":0,
			"byteLength":38600,
			"byteOffset":115800,
			"target":34962
		},
		{
			"buffer":0,
			"byteLength":38600,
			"byteOffset":154400,
			"target":34962
		},
		{
			"buffer":0,
			"byteLength":19300,
			"byteOffset":193000,
			"target":34962
		},
		{
			"buffer":0,
			"byteLength":77200,
			"byteOffset":212300,
			"target":34962
		},
		{
			"buffer":0,
			"byteLength":40608,
			"byteOffset":289500,
			"target":34963
		},
		{
			"buffer":0,
			"byteLength":29953,
			"byteOffset":330108
		},
		{
			"buffer":0,
			"byteLength":5815,
			"byteOffset":360064
		},
		{
			"buffer":0,
			"byteLength":256,
			"byteOffset":365880
		},
		{
			"buffer":0,
			"byteLength":8,
			"byteOffset":366136
		},
		{
			"buffer":0,
			"byteLength":24,
			"byteOffset":366144
		},
		{
			"buffer":0,
			"byteLength":32,
			"byteOffset":366168
		},
		{
			"buffer":0,
			"byteLength":24,
			"byteOffset":366200
		},
		{
			"buffer":0,
			"byteLength":24,
			"byteOffset":366224
		},
		{
			"buffer":0,
			"byteLength":32,
			"byteOffset":366248
		},
		{
			"buffer":0,
			"byteLength":24,
			"byteOffset":366280
		},
		{
			"buffer":0,
			"byteLength":24,
			"byteOffset":366304
		},
		{
			"buffer":0,
			"byteLength":204,
			"byteOffset":366328
		},
		{
			"buffer":0,
			"byteLength":816,
			"byteOffset":366532
		},
		{
			"buffer":0,
			"byteLength":24,
			"byteOffset":367348
		},
		{
			"buffer":0,
			"byteLength":24,
			"byteOffset":367372
		},
		{
			"buffer":0,
			"byteLength":816,
			"byteOffset":367396
		},
		{
			"buffer":0,
			"byteLength":24,
			"byteOffset":368212
		},
		{
			"buffer":0,
			"byteLength":612,
			"byteOffset":368236
		},
		{
			"buffer":0,
			"byteLength":816,
			"byteOffset":368848
		},
		{
			"buffer":0,
			"byteLength":8,
			"byteOffset":369664
		},
		{
			"buffer":0,
			"byteLength":24,
			"byteOffset":369672
		},
		{
			"buffer":0,
			"byteLength":32,
			"byteOffset":369696
		},
		{
			"buffer":0,
			"byteLength":24,
			"byteOffset":369728
		},
		{
			"buffer":0,
			"byteLength":24,
			"byteOffset":369752
		},
		{
			"buffer":0,
			"byteLength":32,
			"byteOffset":369776
		},
		{
			"buffer":0,
			"byteLength":24,
			"byteOffset":369808
		},
		{
			"buffer":0,
			"byteLength":24,
			"byteOffset":369832
		},
		{
			"buffer":0,
			"byteLength":196,
			"byteOffset":369856
		},
		{
			"buffer":0,
			"byteLength":784,
			"byteOffset":370052
		},
		{
			"buffer":0,
			"byteLength":24,
			"byteOffset":370836
		},
		{
			"buffer":0,
			"byteLength":24,
			"byteOffset":370860
		},
		{
			"buffer":0,
			"byteLength":784,
			"byteOffset":370884
		},
		{
			"buffer":0,
			"byteLength":24,
			"byteOffset":371668
		},
		{
			"buffer":0,
			"byteLength":588,
			"byteOffset":371692
		},
		{
			"buffer":0,
			"byteLength":784,
			"byteOffset":372280
		},
		{
			"buffer":0,
			"byteLength":24,
			"byteOffset":373064
		},
		{
			"buffer":0,
			"byteLength":32,
			"byteOffset":373088
		},
		{
			"buffer":0,
			"byteLength":24,
			"byteOffset":373120
		},
		{
			"buffer":0,
			"byteLength":24,
			"byteOffset":373144
		},
		{
			"buffer":0,
			"byteLength":32,
			"byteOffset":373168
		},
		{
			"buffer":0,
			"byteLength":24,
			"byteOffset":373200
		},
		{
			"buffer":0,
			"byteLength":24,
			"byteOffset":373224
		},
		{
			"buffer":0,
			"byteLength":784,
			"byteOffset":373248
		},
		{
			"buffer":0,
			"byteLength":24,
			"byteOffset":374032
		},
		{
			"buffer":0,
			"byteLength":24,
			"byteOffset":374056
		},
		{
			"buffer":0,
			"byteLength":784,
			"byteOffset":374080
		},
		{
			"buffer":0,
			"byteLength":24,
			"byteOffset":374864
		},
		{
			"buffer":0,
			"byteLength":588,
			"byteOffset":374888
		},
		{
			"buffer":0,
			"byteLength":784,
			"byteOffset":375476
		},
		{
			"buffer":0,
			"byteLength":8,
			"byteOffset":376260
		},
		{
			"buffer":0,
			"byteLength":24,
			"byteOffset":376268
		},
		{
			"buffer":0,
			"byteLength":32,
			"byteOffset":376292
		},
		{
			"buffer":0,
			"byteLength":24,
			"byteOffset":376324
		},
		{
			"buffer":0,
			"byteLength":24,
			"byteOffset":376348
		},
		{
			"buffer":0,
			"byteLength":32,
			"byteOffset":376372
		},
		{
			"buffer":0,
			"byteLength":24,
			"byteOffset":376404
		},
		{
			"buffer":0,
			"byteLength":24,
			"byteOffset":376428
		},
		{
			"buffer":0,
			"byteLength":32,
			"byteOffset":376452
		},
		{
			"buffer":0,
			"byteLength":24,
			"byteOffset":376484
		},
		{
			"buffer":0,
			"byteLength":24,
			"byteOffset":376508
		},
		{
			"buffer":0,
			"byteLength":32,
			"byteOffset":376532
		},
		{
			"buffer":0,
			"byteLength":24,
			"byteOffset":376564
		},
		{
			"buffer":0,
			"byteLength":36,
			"byteOffset":376588
		},
		{
			"buffer":0,
			"byteLength":108,
			"byteOffset":376624
		},
		{
			"buffer":0,
			"byteLength":144,
			"byteOffset":376732
		}
	],
	"samplers":[
		{
			"magFilter":9729,
			"minFilter":9987
		}
	],
	"buffers":[
		{
			"byteLength":376876,
			"uri":"data:application/octet-stream;base64,"
		}
	]
}
